<svg width="247" height="832" viewBox="0 0 247 832" fill="none" xmlns="http://www.w3.org/2000/svg">
<path fill-rule="evenodd" clip-rule="evenodd" d="M41 574.5L40.9999 -21L246.5 -21L246.5 832C246.5 832 242.69 831.753 236.5 830.503L236.5 826C236.5 824.343 235.157 823 233.5 823L222.5 823C220.909 823 219.608 824.238 219.506 825.803C187.517 814.548 138.5 783.233 138.5 697C138.5 607.935 91.2938 603.357 62.5755 595L65 595C66.6568 595 68 593.657 68 592L68 586C68 584.343 66.6568 583 65 583L54 583C52.3431 583 51 584.343 51 586L51 590.622C44.8417 587.329 41 582.638 41 574.5ZM54 463C52.3431 463 51 464.343 51 466L51 472C51 473.657 52.3431 475 54 475L65 475C66.6568 475 68 473.657 68 472L68 466C68 464.343 66.6568 463 65 463L54 463ZM51 486L51 492C51 493.657 52.3431 495 54 495L65 495C66.6568 495 68 493.657 68 492L68 486C68 484.343 66.6568 483 65 483L54 483C52.3431 483 51 484.343 51 486ZM51 506L51 512C51 513.657 52.3431 515 54 515L65 515C66.6568 515 68 513.657 68 512L68 506C68 504.343 66.6568 503 65 503L54 503C52.3431 503 51 504.343 51 506ZM51 526L51 532C51 533.657 52.3431 535 54 535L65 535C66.6568 535 68 533.657 68 532L68 526C68 524.343 66.6568 523 65 523L54 523C52.3431 523 51 524.343 51 526ZM51 546L51 552C51 553.657 52.3431 555 54 555L65 555C66.6568 555 68 553.657 68 552L68 546C68 544.343 66.6568 543 65 543L54 543C52.3431 543 51 544.343 51 546ZM51 566L51 572C51 573.657 52.3431 575 54 575L65 575C66.6568 575 68 573.657 68 572L68 566C68 564.343 66.6568 563 65 563L54 563C52.3431 563 51 564.343 51 566ZM51 306L51 312C51 313.657 52.3431 315 54 315L65 315C66.6568 315 68 313.657 68 312L68 306C68 304.343 66.6568 303 65 303L54 303C52.3431 303 51 304.343 51 306ZM51 326L51 332C51 333.657 52.3431 335 54 335L65 335C66.6568 335 68 333.657 68 332L68 326C68 324.343 66.6568 323 65 323L54 323C52.3431 323 51 324.343 51 326ZM51 346L51 352C51 353.657 52.3431 355 54 355L65 355C66.6568 355 68 353.657 68 352L68 346C68 344.343 66.6568 343 65 343L54 343C52.3431 343 51 344.343 51 346ZM51 366L51 372C51 373.657 52.3431 375 54 375L65 375C66.6568 375 68 373.657 68 372L68 366C68 364.343 66.6568 363 65 363L54 363C52.3431 363 51 364.343 51 366ZM51 386L51 392C51 393.657 52.3431 395 54 395L65 395C66.6568 395 68 393.657 68 392L68 386C68 384.343 66.6568 383 65 383L54 383C52.3431 383 51 384.343 51 386ZM51 406L51 412C51 413.657 52.3431 415 54 415L65 415C66.6568 415 68 413.657 68 412L68 406C68 404.343 66.6568 403 65 403L54 403C52.3431 403 51 404.343 51 406ZM51 426L51 432C51 433.657 52.3431 435 54 435L65 435C66.6568 435 68 433.657 68 432L68 426C68 424.343 66.6568 423 65 423L54 423C52.3431 423 51 424.343 51 426ZM51 446L51 452C51 453.657 52.3431 455 54 455L65 455C66.6568 455 68 453.657 68 452L68 446C68 444.343 66.6568 443 65 443L54 443C52.3431 443 51 444.343 51 446ZM50.9999 146L50.9999 152C50.9999 153.657 52.3431 155 53.9999 155L64.9999 155C66.6568 155 67.9999 153.657 67.9999 152L67.9999 146C67.9999 144.343 66.6568 143 64.9999 143L53.9999 143C52.3431 143 50.9999 144.343 50.9999 146ZM50.9999 166L50.9999 172C50.9999 173.657 52.3431 175 53.9999 175L64.9999 175C66.6568 175 67.9999 173.657 67.9999 172L67.9999 166C67.9999 164.343 66.6568 163 64.9999 163L53.9999 163C52.3431 163 50.9999 164.343 50.9999 166ZM50.9999 186L50.9999 192C50.9999 193.657 52.3431 195 53.9999 195L64.9999 195C66.6568 195 67.9999 193.657 67.9999 192L67.9999 186C67.9999 184.343 66.6568 183 64.9999 183L53.9999 183C52.3431 183 50.9999 184.343 50.9999 186ZM50.9999 206L50.9999 212C50.9999 213.657 52.3431 215 53.9999 215L64.9999 215C66.6568 215 67.9999 213.657 67.9999 212L67.9999 206C67.9999 204.343 66.6568 203 64.9999 203L53.9999 203C52.3431 203 50.9999 204.343 50.9999 206ZM50.9999 226L50.9999 232C50.9999 233.657 52.3431 235 53.9999 235L64.9999 235C66.6568 235 67.9999 233.657 67.9999 232L67.9999 226C67.9999 224.343 66.6568 223 64.9999 223L53.9999 223C52.3431 223 50.9999 224.343 50.9999 226ZM50.9999 246L50.9999 252C50.9999 253.657 52.3431 255 53.9999 255L64.9999 255C66.6568 255 67.9999 253.657 67.9999 252L67.9999 246C67.9999 244.343 66.6568 243 64.9999 243L53.9999 243C52.3431 243 50.9999 244.343 50.9999 246ZM51 266L51 272C51 273.657 52.3431 275 54 275L65 275C66.6568 275 68 273.657 68 272L68 266C68 264.343 66.6568 263 65 263L54 263C52.3431 263 51 264.343 51 266ZM51 286L51 292C51 293.657 52.3431 295 54 295L65 295C66.6568 295 68 293.657 68 292L68 286C68 284.343 66.6568 283 65 283L54 283C52.3431 283 51 284.343 51 286ZM50.9999 -14L50.9999 -8C50.9999 -6.34314 52.3431 -5 53.9999 -5L64.9999 -5C66.6568 -5 67.9999 -6.34314 67.9999 -8L67.9999 -14C67.9999 -15.6569 66.6568 -17 64.9999 -17L53.9999 -17C52.3431 -17 50.9999 -15.6569 50.9999 -14ZM50.9999 6L50.9999 12C50.9999 13.6569 52.3431 15 53.9999 15L64.9999 15C66.6568 15 67.9999 13.6569 67.9999 12L67.9999 6C67.9999 4.34314 66.6568 3 64.9999 3L53.9999 3C52.3431 3 50.9999 4.34314 50.9999 6ZM50.9999 26L50.9999 32C50.9999 33.6569 52.3431 35 53.9999 35L64.9999 35C66.6568 35 67.9999 33.6569 67.9999 32L67.9999 26C67.9999 24.3431 66.6568 23 64.9999 23L53.9999 23C52.3431 23 50.9999 24.3431 50.9999 26ZM50.9999 46L50.9999 52C50.9999 53.6569 52.3431 55 53.9999 55L64.9999 55C66.6568 55 67.9999 53.6569 67.9999 52L67.9999 46C67.9999 44.3431 66.6568 43 64.9999 43L53.9999 43C52.3431 43 50.9999 44.3431 50.9999 46ZM50.9999 66L50.9999 72C50.9999 73.6569 52.3431 75 53.9999 75L64.9999 75C66.6568 75 67.9999 73.6569 67.9999 72L67.9999 66C67.9999 64.3431 66.6568 63 64.9999 63L53.9999 63C52.3431 63 50.9999 64.3431 50.9999 66ZM50.9999 86L50.9999 92C50.9999 93.6569 52.3431 95 53.9999 95L64.9999 95C66.6568 95 67.9999 93.6569 67.9999 92L67.9999 86C67.9999 84.3431 66.6568 83 64.9999 83L53.9999 83C52.3431 83 50.9999 84.3431 50.9999 86ZM50.9999 106L50.9999 112C50.9999 113.657 52.3431 115 53.9999 115L64.9999 115C66.6568 115 67.9999 113.657 67.9999 112L67.9999 106C67.9999 104.343 66.6568 103 64.9999 103L53.9999 103C52.3431 103 50.9999 104.343 50.9999 106ZM50.9999 126L50.9999 132C50.9999 133.657 52.3431 135 53.9999 135L64.9999 135C66.6568 135 67.9999 133.657 67.9999 132L67.9999 126C67.9999 124.343 66.6568 123 64.9999 123L53.9999 123C52.3431 123 50.9999 124.343 50.9999 126ZM219.5 466L219.5 472C219.5 473.657 220.843 475 222.5 475L233.5 475C235.157 475 236.5 473.657 236.5 472L236.5 466C236.5 464.343 235.157 463 233.5 463L222.5 463C220.843 463 219.5 464.343 219.5 466ZM219.5 486L219.5 492C219.5 493.657 220.843 495 222.5 495L233.5 495C235.157 495 236.5 493.657 236.5 492L236.5 486C236.5 484.343 235.157 483 233.5 483L222.5 483C220.843 483 219.5 484.343 219.5 486ZM219.5 506L219.5 512C219.5 513.657 220.843 515 222.5 515L233.5 515C235.157 515 236.5 513.657 236.5 512L236.5 506C236.5 504.343 235.157 503 233.5 503L222.5 503C220.843 503 219.5 504.343 219.5 506ZM219.5 526L219.5 532C219.5 533.657 220.843 535 222.5 535L233.5 535C235.157 535 236.5 533.657 236.5 532L236.5 526C236.5 524.343 235.157 523 233.5 523L222.5 523C220.843 523 219.5 524.343 219.5 526ZM219.5 546L219.5 552C219.5 553.657 220.843 555 222.5 555L233.5 555C235.157 555 236.5 553.657 236.5 552L236.5 546C236.5 544.343 235.157 543 233.5 543L222.5 543C220.843 543 219.5 544.343 219.5 546ZM219.5 566L219.5 572C219.5 573.657 220.843 575 222.5 575L233.5 575C235.157 575 236.5 573.657 236.5 572L236.5 566C236.5 564.343 235.157 563 233.5 563L222.5 563C220.843 563 219.5 564.343 219.5 566ZM219.5 586L219.5 592C219.5 593.657 220.843 595 222.5 595L233.5 595C235.157 595 236.5 593.657 236.5 592L236.5 586C236.5 584.343 235.157 583 233.5 583L222.5 583C220.843 583 219.5 584.343 219.5 586ZM219.5 606L219.5 612C219.5 613.657 220.843 615 222.5 615L233.5 615C235.157 615 236.5 613.657 236.5 612L236.5 606C236.5 604.343 235.157 603 233.5 603L222.5 603C220.843 603 219.5 604.343 219.5 606ZM219.5 306L219.5 312C219.5 313.657 220.843 315 222.5 315L233.5 315C235.157 315 236.5 313.657 236.5 312L236.5 306C236.5 304.343 235.157 303 233.5 303L222.5 303C220.843 303 219.5 304.343 219.5 306ZM219.5 326L219.5 332C219.5 333.657 220.843 335 222.5 335L233.5 335C235.157 335 236.5 333.657 236.5 332L236.5 326C236.5 324.343 235.157 323 233.5 323L222.5 323C220.843 323 219.5 324.343 219.5 326ZM219.5 346L219.5 352C219.5 353.657 220.843 355 222.5 355L233.5 355C235.157 355 236.5 353.657 236.5 352L236.5 346C236.5 344.343 235.157 343 233.5 343L222.5 343C220.843 343 219.5 344.343 219.5 346ZM219.5 366L219.5 372C219.5 373.657 220.843 375 222.5 375L233.5 375C235.157 375 236.5 373.657 236.5 372L236.5 366C236.5 364.343 235.157 363 233.5 363L222.5 363C220.843 363 219.5 364.343 219.5 366ZM219.5 386L219.5 392C219.5 393.657 220.843 395 222.5 395L233.5 395C235.157 395 236.5 393.657 236.5 392L236.5 386C236.5 384.343 235.157 383 233.5 383L222.5 383C220.843 383 219.5 384.343 219.5 386ZM219.5 406L219.5 412C219.5 413.657 220.843 415 222.5 415L233.5 415C235.157 415 236.5 413.657 236.5 412L236.5 406C236.5 404.343 235.157 403 233.5 403L222.5 403C220.843 403 219.5 404.343 219.5 406ZM219.5 426L219.5 432C219.5 433.657 220.843 435 222.5 435L233.5 435C235.157 435 236.5 433.657 236.5 432L236.5 426C236.5 424.343 235.157 423 233.5 423L222.5 423C220.843 423 219.5 424.343 219.5 426ZM219.5 446L219.5 452C219.5 453.657 220.843 455 222.5 455L233.5 455C235.157 455 236.5 453.657 236.5 452L236.5 446C236.5 444.343 235.157 443 233.5 443L222.5 443C220.843 443 219.5 444.343 219.5 446ZM219.5 146L219.5 152C219.5 153.657 220.843 155 222.5 155L233.5 155C235.157 155 236.5 153.657 236.5 152L236.5 146C236.5 144.343 235.157 143 233.5 143L222.5 143C220.843 143 219.5 144.343 219.5 146ZM219.5 166L219.5 172C219.5 173.657 220.843 175 222.5 175L233.5 175C235.157 175 236.5 173.657 236.5 172L236.5 166C236.5 164.343 235.157 163 233.5 163L222.5 163C220.843 163 219.5 164.343 219.5 166ZM219.5 186L219.5 192C219.5 193.657 220.843 195 222.5 195L233.5 195C235.157 195 236.5 193.657 236.5 192L236.5 186C236.5 184.343 235.157 183 233.5 183L222.5 183C220.843 183 219.5 184.343 219.5 186ZM219.5 206L219.5 212C219.5 213.657 220.843 215 222.5 215L233.5 215C235.157 215 236.5 213.657 236.5 212L236.5 206C236.5 204.343 235.157 203 233.5 203L222.5 203C220.843 203 219.5 204.343 219.5 206ZM219.5 226L219.5 232C219.5 233.657 220.843 235 222.5 235L233.5 235C235.157 235 236.5 233.657 236.5 232L236.5 226C236.5 224.343 235.157 223 233.5 223L222.5 223C220.843 223 219.5 224.343 219.5 226ZM219.5 246L219.5 252C219.5 253.657 220.843 255 222.5 255L233.5 255C235.157 255 236.5 253.657 236.5 252L236.5 246C236.5 244.343 235.157 243 233.5 243L222.5 243C220.843 243 219.5 244.343 219.5 246ZM219.5 266L219.5 272C219.5 273.657 220.843 275 222.5 275L233.5 275C235.157 275 236.5 273.657 236.5 272L236.5 266C236.5 264.343 235.157 263 233.5 263L222.5 263C220.843 263 219.5 264.343 219.5 266ZM219.5 286L219.5 292C219.5 293.657 220.843 295 222.5 295L233.5 295C235.157 295 236.5 293.657 236.5 292L236.5 286C236.5 284.343 235.157 283 233.5 283L222.5 283C220.843 283 219.5 284.343 219.5 286ZM219.5 -14L219.5 -8.00002C219.5 -6.34316 220.843 -5.00002 222.5 -5.00002L233.5 -5.00002C235.157 -5.00002 236.5 -6.34316 236.5 -8.00002L236.5 -14C236.5 -15.6569 235.157 -17 233.5 -17L222.5 -17C220.843 -17 219.5 -15.6569 219.5 -14ZM219.5 5.99998L219.5 12C219.5 13.6568 220.843 15 222.5 15L233.5 15C235.157 15 236.5 13.6568 236.5 12L236.5 5.99998C236.5 4.34312 235.157 2.99998 233.5 2.99998L222.5 2.99998C220.843 2.99998 219.5 4.34312 219.5 5.99998ZM219.5 26L219.5 32C219.5 33.6568 220.843 35 222.5 35L233.5 35C235.157 35 236.5 33.6568 236.5 32L236.5 26C236.5 24.3431 235.157 23 233.5 23L222.5 23C220.843 23 219.5 24.3431 219.5 26ZM219.5 46L219.5 52C219.5 53.6568 220.843 55 222.5 55L233.5 55C235.157 55 236.5 53.6568 236.5 52L236.5 46C236.5 44.3431 235.157 43 233.5 43L222.5 43C220.843 43 219.5 44.3431 219.5 46ZM219.5 66L219.5 72C219.5 73.6568 220.843 75 222.5 75L233.5 75C235.157 75 236.5 73.6568 236.5 72L236.5 66C236.5 64.3431 235.157 63 233.5 63L222.5 63C220.843 63 219.5 64.3431 219.5 66ZM219.5 86L219.5 92C219.5 93.6568 220.843 95 222.5 95L233.5 95C235.157 95 236.5 93.6568 236.5 92L236.5 86C236.5 84.3431 235.157 83 233.5 83L222.5 83C220.843 83 219.5 84.3431 219.5 86ZM219.5 106L219.5 112C219.5 113.657 220.843 115 222.5 115L233.5 115C235.157 115 236.5 113.657 236.5 112L236.5 106C236.5 104.343 235.157 103 233.5 103L222.5 103C220.843 103 219.5 104.343 219.5 106ZM219.5 126L219.5 132C219.5 133.657 220.843 135 222.5 135L233.5 135C235.157 135 236.5 133.657 236.5 132L236.5 126C236.5 124.343 235.157 123 233.5 123L222.5 123C220.843 123 219.5 124.343 219.5 126ZM219.5 706L219.5 712C219.5 713.657 220.843 715 222.5 715L233.5 715C235.157 715 236.5 713.657 236.5 712L236.5 706C236.5 704.343 235.157 703 233.5 703L222.5 703C220.843 703 219.5 704.343 219.5 706ZM219.5 726L219.5 732C219.5 733.657 220.843 735 222.5 735L233.5 735C235.157 735 236.5 733.657 236.5 732L236.5 726C236.5 724.343 235.157 723 233.5 723L222.5 723C220.843 723 219.5 724.343 219.5 726ZM219.5 746L219.5 752C219.5 753.657 220.843 755 222.5 755L233.5 755C235.157 755 236.5 753.657 236.5 752L236.5 746C236.5 744.343 235.157 743 233.5 743L222.5 743C220.843 743 219.5 744.343 219.5 746ZM219.5 766L219.5 772C219.5 773.657 220.843 775 222.5 775L233.5 775C235.157 775 236.5 773.657 236.5 772L236.5 766C236.5 764.343 235.157 763 233.5 763L222.5 763C220.843 763 219.5 764.343 219.5 766ZM219.5 786L219.5 792C219.5 793.657 220.843 795 222.5 795L233.5 795C235.157 795 236.5 793.657 236.5 792L236.5 786C236.5 784.343 235.157 783 233.5 783L222.5 783C220.843 783 219.5 784.343 219.5 786ZM219.5 806L219.5 812C219.5 813.657 220.843 815 222.5 815L233.5 815C235.157 815 236.5 813.657 236.5 812L236.5 806C236.5 804.343 235.157 803 233.5 803L222.5 803C220.843 803 219.5 804.343 219.5 806ZM219.5 626L219.5 632C219.5 633.657 220.843 635 222.5 635L233.5 635C235.157 635 236.5 633.657 236.5 632L236.5 626C236.5 624.343 235.157 623 233.5 623L222.5 623C220.843 623 219.5 624.343 219.5 626ZM219.5 646L219.5 652C219.5 653.657 220.843 655 222.5 655L233.5 655C235.157 655 236.5 653.657 236.5 652L236.5 646C236.5 644.343 235.157 643 233.5 643L222.5 643C220.843 643 219.5 644.343 219.5 646ZM219.5 666L219.5 672C219.5 673.657 220.843 675 222.5 675L233.5 675C235.157 675 236.5 673.657 236.5 672L236.5 666C236.5 664.343 235.157 663 233.5 663L222.5 663C220.843 663 219.5 664.343 219.5 666ZM219.5 686L219.5 692C219.5 693.657 220.843 695 222.5 695L233.5 695C235.157 695 236.5 693.657 236.5 692L236.5 686C236.5 684.343 235.157 683 233.5 683L222.5 683C220.843 683 219.5 684.343 219.5 686Z" fill="#E1CAB5"/>
<path d="M0 588V3.05176e-05H170V588L85 496.5L0 588Z" fill="#B2B3CA"/>
</svg>
